<?xml version="1.0" encoding="iso-8859-1"?>
<!-- Generator: Adobe Illustrator 18.1.1, SVG Export Plug-In . SVG Version: 6.00 Build 0)  -->
<svg version="1.1" id="Capa_1" xmlns="http://www.w3.org/2000/svg" xmlns:xlink="http://www.w3.org/1999/xlink" x="0px" y="0px"
	 viewBox="0 0 15.332 15.332" style="enable-background:new 0 0 15.332 15.332;  " xml:space="preserve"  >
<g>
	<path style="fill:#030104;" d="M14.395,0H0.938C0.419,0,0,0.42,0,0.938v13.455c0,0.52,0.42,0.939,0.938,0.939h13.456
		c0.519,0,0.938-0.42,0.938-0.939V0.938C15.333,0.42,14.913,0,14.395,0z M4.463,9.427H3.669V7.955H2.357v1.472H1.558V5.906h0.799
		V7.26h1.312V5.906h0.794V9.427z M7.6,6.574H6.639v2.853h-0.8V6.574H4.893V5.906H7.6C7.6,5.906,7.6,6.574,7.6,6.574z M11.034,9.427
		L10.982,8.08c-0.016-0.424-0.031-0.936-0.031-1.447h-0.015c-0.11,0.449-0.257,0.951-0.393,1.363l-0.429,1.375H9.493L9.116,8.007
		C9.001,7.594,8.881,7.092,8.798,6.633H8.787C8.766,7.108,8.751,7.652,8.724,8.09L8.661,9.427H7.924l0.225-3.521h1.062l0.345,1.176
		c0.109,0.407,0.22,0.846,0.298,1.259H9.87c0.1-0.408,0.22-0.873,0.334-1.265l0.377-1.17h1.04l0.193,3.521
		C11.814,9.427,11.034,9.427,11.034,9.427z M14.626,9.427h-2.2V5.906h0.8V8.76h1.4C14.626,8.76,14.626,9.427,14.626,9.427z"/>
</g>
<g>
</g>
<g>
</g>
<g>
</g>
<g>
</g>
<g>
</g>
<g>
</g>
<g>
</g>
<g>
</g>
<g>
</g>
<g>
</g>
<g>
</g>
<g>
</g>
<g>
</g>
<g>
</g>
<g>
</g>
</svg>
