<?xml version="1.0" encoding="iso-8859-1"?>
<!-- Generator: Adobe Illustrator 16.0.0, SVG Export Plug-In . SVG Version: 6.00 Build 0)  -->
<!DOCTYPE svg PUBLIC "-//W3C//DTD SVG 1.1//EN" "http://www.w3.org/Graphics/SVG/1.1/DTD/svg11.dtd">
<svg version="1.1" id="Capa_1" xmlns="http://www.w3.org/2000/svg" xmlns:xlink="http://www.w3.org/1999/xlink" x="0px" y="0px"
	 width="80px" height="80px" viewBox="0 0 80 80" stroke="#fff" style="enable-background:new 0 0 80 80; fill:#fff ;" xml:space="preserve" >
               
<g>
	<g>
		<path d="M40,80c22.092,0,40-17.908,40-40C80,17.909,62.092,0,40,0C17.908,0,0,17.909,0,40C0,62.092,17.908,80,40,80z
			 M14.338,23.475c0-0.552,0.447-1,1-1h50.333c0.554,0,1,0.448,1,1v39.658c0,0.553-0.446,1-1,1H15.338c-0.553,0-1-0.447-1-1V23.475z
			"/>
		<path d="M61.749,31.503h-42.49v27.603h42.49V31.503z M35.138,49.174c0.468,0.295,0.608,0.912,0.314,1.379
			c-0.19,0.303-0.516,0.469-0.848,0.469c-0.182,0-0.366-0.049-0.531-0.153l-7.5-4.718c-0.259-0.162-0.405-0.424-0.445-0.704
			c-0.011-0.056-0.004-0.109-0.006-0.164c0.002-0.056-0.005-0.108,0.006-0.164c0.04-0.28,0.187-0.542,0.445-0.705l7.5-4.716
			c0.468-0.293,1.085-0.153,1.379,0.314c0.294,0.467,0.153,1.084-0.314,1.379l-6.189,3.892L35.138,49.174z M42.938,40.834
			l-2.875,9.479c-0.131,0.432-0.527,0.709-0.957,0.709c-0.096,0-0.193-0.014-0.29-0.043c-0.528-0.16-0.827-0.719-0.667-1.248
			l2.875-9.478c0.16-0.527,0.719-0.827,1.248-0.667C42.799,39.747,43.098,40.305,42.938,40.834z M54.881,45.491
			c-0.04,0.28-0.188,0.542-0.445,0.705l-7.5,4.717c-0.164,0.104-0.35,0.153-0.531,0.153c-0.332,0-0.656-0.166-0.848-0.469
			c-0.294-0.467-0.152-1.084,0.314-1.379l6.189-3.893l-6.189-3.893c-0.469-0.293-0.608-0.912-0.314-1.379
			c0.295-0.468,0.912-0.607,1.379-0.313l7.5,4.716c0.26,0.163,0.405,0.426,0.445,0.705c0.012,0.055,0.004,0.107,0.005,0.164
			C54.885,45.383,54.893,45.436,54.881,45.491z"/>
	</g>
</g>
<g>
</g>
<g>
</g>
<g>
</g>
<g>
</g>
<g>
</g>
<g>
</g>
<g>
</g>
<g>
</g>
<g>
</g>
<g>
</g>
<g>
</g>
<g>
</g>
<g>
</g>
<g>
</g>
<g>
</g>
</svg>
