<?xml version="1.0" encoding="utf-8"?>
<!-- Svg Vector Icons : http://www.onlinewebfonts.com/icon -->
<!DOCTYPE svg PUBLIC "-//W3C//DTD SVG 1.1//EN" "http://www.w3.org/Graphics/SVG/1.1/DTD/svg11.dtd">
<svg version="1.1" xmlns="http://www.w3.org/2000/svg" xmlns:xlink="http://www.w3.org/1999/xlink" x="0px" y="0px" viewBox="0 0 1000 1000" enable-background="new 0 0 1000 1000"  stroke="#fff" style=" fill:#fff;" xml:space="preserve">
<metadata> Svg Vector Icons : http://www.onlinewebfonts.com/icon </metadata>
<g><path d="M569.4,713.2H161.5c-7.4,0-13.4,5.6-13.4,12.5c0,6.9,6,12.5,13.4,12.5h407.9c7.4,0,13.4-5.6,13.4-12.5C582.8,718.8,576.8,713.2,569.4,713.2z"/><path d="M569.4,609.8H161.5c-7.4,0-13.4,5.6-13.4,12.5c0,6.9,6,12.5,13.4,12.5h407.9c7.4,0,13.4-5.6,13.4-12.5C582.8,615.4,576.8,609.8,569.4,609.8z"/><path d="M569.4,506.4H161.5c-7.4,0-13.4,5.6-13.4,12.5c0,6.9,6,12.5,13.4,12.5h407.9c7.4,0,13.4-5.6,13.4-12.5C582.8,512,576.8,506.4,569.4,506.4z"/><path d="M161.5,430.4h186.6c7.4,0,13.4-5.6,13.4-12.5c0-6.9-6-12.5-13.4-12.5H161.5c-7.4,0-13.4,5.6-13.4,12.5C148.1,424.8,154.1,430.4,161.5,430.4z"/><path d="M581,60.5c-6.3-5.8-14.7-9-23.6-9H43.5C25,51.5,10,65.5,10,82.7v834.5c0,17.3,15,31.3,33.5,31.3h643.8c18.5,0,33.5-14,33.5-31.3V202c0-8.4-3.6-16.4-10-22.3L581,60.5z M77.1,886V114h445.5v101.9c0,10.3,9,18.8,20.1,18.8h111.1V886L77.1,886L77.1,886z"/><path d="M969.9,91.7H817.9c-11.1,0-20.1,8.4-20.1,18.7v642.4c0,2.5,0.6,5,1.6,7.4l76,166.5c3.2,7,10.5,11.5,18.5,11.5c8.1,0,15.3-4.5,18.5-11.5l76-166.5c1-2.3,1.6-4.8,1.6-7.4V110.5C990,100.1,981,91.7,969.9,91.7z M949.7,749.1l-29.6,64.8h-52.5l-29.6-64.8V129.2h48.7l-0.1,0.3v589.2c0,6.9,6,12.5,13.4,12.5c7.4,0,13.4-5.6,13.4-12.5V129.6l-0.1-0.3h36.2L949.7,749.1L949.7,749.1z"/></g>
</svg>